<svg xmlns="http://www.w3.org/2000/svg" width="534" height="663" fill="none" viewBox="0 0 534 663"><path fill="#000" d="M232.998 73V0C122 20.5 42 107 42 225c2 122 91 205.5 190.998 222v-73c-54.998-10.5-122.5-68.5-120-149s52-135.5 120-152M302 374v73c110.998-20.5 190.998-107 190.998-225-2-122-91-205.5-190.998-222v73c54.998 10.5 122.5 68.5 120 149s-52 135.5-120 152"/><path fill="#000" d="M423 448v-57c30-24 60-73 70-126v183zM24.344 595.304V586C10.197 588.613 0 599.638 0 614.678c.255 15.55 11.599 26.193 24.344 28.296v-9.304c-7.01-1.339-15.613-8.731-15.295-18.992.319-10.26 6.628-17.27 15.295-19.374m8.796 38.366v9.304c14.147-2.613 24.344-13.638 24.344-28.678-.255-15.55-11.599-26.193-24.345-28.296v9.305c7.01 1.338 15.614 8.73 15.296 18.991-.32 10.26-6.628 17.271-15.296 19.374"/><path fill="#000" d="M48.562 643.102v-7.266c3.824-3.059 7.648-9.304 8.922-16.059v23.325zM19.09 547.727q-4.908 0-8.454-2.318-3.545-2.318-5.454-6.386-1.91-4.068-1.91-9.296 0-5.318 1.955-9.386 1.978-4.09 5.5-6.386 3.546-2.319 8.273-2.319 3.682 0 6.636 1.364t4.841 3.818q1.887 2.456 2.341 5.727h-5.363q-.615-2.386-2.728-4.227-2.091-1.863-5.636-1.863-3.136 0-5.5 1.636-2.34 1.614-3.66 4.568-1.295 2.932-1.295 6.886 0 4.046 1.273 7.046 1.296 3 3.637 4.659 2.363 1.659 5.545 1.659 2.091 0 3.795-.727a7.8 7.8 0 0 0 2.887-2.091q1.182-1.364 1.681-3.273h5.364q-.454 3.091-2.25 5.568-1.773 2.456-4.704 3.909-2.91 1.432-6.773 1.432M44.5 547v-34.909h5.18v5.273h.364q.955-2.591 3.455-4.205t5.636-1.614q.591 0 1.478.023.886.023 1.34.068v5.455q-.272-.069-1.25-.205a12.3 12.3 0 0 0-2.022-.159q-2.546 0-4.545 1.068a8.06 8.06 0 0 0-3.137 2.91q-1.137 1.84-1.136 4.204V547zm27.652 0v-34.909h5.363V547zm2.727-40.727a3.8 3.8 0 0 1-2.705-1.068q-1.113-1.07-1.113-2.569 0-1.5 1.113-2.568A3.8 3.8 0 0 1 74.88 499q1.568 0 2.682 1.068 1.136 1.068 1.136 2.568t-1.136 2.569q-1.114 1.068-2.682 1.068m41.027 13.636-4.818 1.364a9 9 0 0 0-1.341-2.341q-.863-1.16-2.363-1.909t-3.841-.75q-3.205 0-5.341 1.477-2.115 1.455-2.114 3.705 0 2 1.455 3.159t4.545 1.931l5.182 1.273q4.682 1.137 6.977 3.477 2.296 2.318 2.296 5.978 0 3-1.728 5.363-1.704 2.364-4.772 3.728-3.069 1.363-7.137 1.363-5.34 0-8.84-2.318t-4.432-6.773l5.09-1.272q.728 2.818 2.75 4.227Q99.52 543 102.816 543q3.75 0 5.955-1.591 2.227-1.614 2.227-3.864 0-1.818-1.272-3.045-1.273-1.25-3.91-1.864l-5.818-1.363q-4.795-1.137-7.045-3.523-2.227-2.41-2.227-6.023 0-2.954 1.659-5.227 1.681-2.273 4.568-3.568 2.91-1.296 6.591-1.296 5.181 0 8.136 2.273 2.978 2.272 4.227 6m27.732-7.818v4.545h-18.09v-4.545zm-12.818-8.364h5.364V537q0 2.273.659 3.409.682 1.115 1.727 1.5a6.9 6.9 0 0 0 2.25.364q.887 0 1.455-.091l.909-.182 1.091 4.818q-.546.205-1.523.409-.977.228-2.477.228-2.272 0-4.455-.978-2.158-.977-3.591-2.977-1.409-2-1.409-5.045zm38.533 44q-4.726 0-8.295-2.25-3.546-2.25-5.546-6.295-1.977-4.046-1.977-9.455 0-5.454 1.977-9.522 2-4.07 5.546-6.319 3.569-2.25 8.295-2.25 4.728 0 8.273 2.25 3.568 2.25 5.546 6.319 2 4.068 2 9.522 0 5.41-2 9.455-1.978 4.045-5.546 6.295-3.545 2.25-8.273 2.25m0-4.818q3.591 0 5.909-1.841 2.319-1.84 3.432-4.841 1.114-3 1.114-6.5t-1.114-6.522q-1.113-3.023-3.432-4.887t-5.909-1.863-5.909 1.863q-2.317 1.864-3.432 4.887-1.113 3.022-1.113 6.522t1.113 6.5q1.115 3 3.432 4.841 2.319 1.84 5.909 1.841m63.868 4.818q-4.91 0-8.455-2.318t-5.454-6.386q-1.91-4.068-1.909-9.296 0-5.318 1.954-9.386 1.978-4.09 5.5-6.386 3.546-2.319 8.273-2.319 3.683 0 6.636 1.364 2.955 1.364 4.841 3.818 1.887 2.456 2.341 5.727h-5.363q-.615-2.386-2.728-4.227-2.09-1.863-5.636-1.863-3.136 0-5.5 1.636-2.341 1.614-3.659 4.568-1.296 2.932-1.296 6.886 0 4.046 1.273 7.046 1.296 3 3.636 4.659 2.364 1.659 5.546 1.659 2.091 0 3.795-.727a7.8 7.8 0 0 0 2.887-2.091q1.181-1.364 1.682-3.273h5.363q-.454 3.091-2.25 5.568-1.773 2.456-4.704 3.909-2.91 1.432-6.773 1.432m35.681.091q-3.318 0-6.023-1.25-2.705-1.272-4.295-3.659-1.591-2.409-1.591-5.818 0-3 1.182-4.864a8.33 8.33 0 0 1 3.159-2.954q1.977-1.069 4.363-1.591a53 53 0 0 1 4.841-.864 215 215 0 0 1 5.159-.613q2-.228 2.909-.75.933-.523.932-1.819v-.181q0-3.364-1.841-5.228-1.818-1.863-5.522-1.863-3.842 0-6.023 1.681-2.182 1.683-3.068 3.591l-5.091-1.818q1.363-3.182 3.636-4.954 2.295-1.796 5-2.5a20.8 20.8 0 0 1 5.364-.728q1.682 0 3.863.409 2.205.387 4.25 1.614 2.069 1.227 3.432 3.705 1.364 2.476 1.364 6.636v23h-5.364v-4.727h-.273q-.545 1.136-1.818 2.432-1.272 1.295-3.386 2.204t-5.159.909m.818-4.818q3.182 0 5.364-1.25 2.204-1.25 3.318-3.227 1.136-1.978 1.136-4.159v-4.909q-.34.408-1.5.75a25 25 0 0 1-2.636.568q-1.477.227-2.887.409-1.386.159-2.25.273a20.5 20.5 0 0 0-3.909.886q-1.795.59-2.909 1.795-1.09 1.182-1.091 3.228 0 2.795 2.069 4.227 2.09 1.409 5.295 1.409m34.175-42.545V547h-5.363v-46.545zM316.559 547v-4.091l19.818-25.454v-.364h-19.182v-5h26.091v4.273l-19.272 25.272V542h19.909v5zm49.738.818q-3.318 0-6.023-1.25-2.705-1.272-4.295-3.659-1.591-2.409-1.591-5.818 0-3 1.182-4.864a8.33 8.33 0 0 1 3.159-2.954q1.977-1.069 4.363-1.591a53 53 0 0 1 4.841-.864 215 215 0 0 1 5.159-.613q2-.228 2.909-.75.933-.523.932-1.819v-.181q0-3.364-1.841-5.228-1.818-1.863-5.522-1.863-3.842 0-6.023 1.681-2.182 1.683-3.068 3.591l-5.091-1.818q1.363-3.182 3.636-4.954 2.295-1.796 5-2.5a20.8 20.8 0 0 1 5.364-.728q1.682 0 3.863.409 2.205.387 4.25 1.614 2.069 1.227 3.432 3.705 1.364 2.476 1.364 6.636v23h-5.364v-4.727h-.273q-.545 1.136-1.818 2.432-1.272 1.295-3.386 2.204t-5.159.909m.818-4.818q3.182 0 5.364-1.25 2.203-1.25 3.318-3.227 1.136-1.978 1.136-4.159v-4.909q-.34.408-1.5.75a25 25 0 0 1-2.636.568q-1.477.227-2.887.409-1.386.159-2.25.273a20.5 20.5 0 0 0-3.909.886q-1.795.59-2.909 1.795-1.09 1.182-1.091 3.228 0 2.795 2.069 4.227 2.09 1.409 5.295 1.409m41.993 4.727q-4.363 0-7.704-2.204-3.341-2.228-5.227-6.273-1.887-4.068-1.887-9.614 0-5.5 1.887-9.545 1.886-4.045 5.25-6.25t7.772-2.205q3.409 0 5.387 1.137 2 1.114 3.045 2.545 1.068 1.41 1.659 2.318h.455v-17.181h5.363V547h-5.181v-5.364h-.637q-.59.956-1.682 2.409-1.09 1.432-3.113 2.569-2.023 1.113-5.387 1.113m.728-4.818q3.226 0 5.454-1.682 2.228-1.704 3.387-4.704 1.159-3.022 1.159-6.978 0-3.909-1.137-6.84-1.135-2.955-3.363-4.591-2.228-1.659-5.5-1.659-3.41 0-5.682 1.75-2.25 1.726-3.387 4.704-1.113 2.955-1.113 6.636 0 3.728 1.136 6.773 1.16 3.023 3.409 4.818 2.272 1.773 5.637 1.773M439.517 547v-34.909h5.363V547zm2.727-40.727a3.82 3.82 0 0 1-2.705-1.068q-1.113-1.07-1.113-2.569 0-1.5 1.113-2.568a3.82 3.82 0 0 1 2.705-1.068q1.568 0 2.682 1.068 1.136 1.068 1.136 2.568t-1.136 2.569q-1.114 1.068-2.682 1.068m21.664-5.818V547h-5.364v-46.545zm19.027 0V547h-5.363v-46.545zm23.937 47.363q-3.318 0-6.023-1.25-2.705-1.272-4.295-3.659-1.591-2.409-1.591-5.818 0-3 1.182-4.864a8.33 8.33 0 0 1 3.159-2.954q1.977-1.069 4.363-1.591a53 53 0 0 1 4.841-.864 215 215 0 0 1 5.159-.613q2-.228 2.909-.75.933-.523.932-1.819v-.181q0-3.364-1.841-5.228-1.818-1.863-5.522-1.863-3.842 0-6.023 1.681-2.182 1.683-3.068 3.591l-5.091-1.818q1.363-3.182 3.636-4.954 2.295-1.796 5-2.5a20.8 20.8 0 0 1 5.364-.728q1.682 0 3.863.409 2.205.387 4.25 1.614 2.069 1.227 3.432 3.705 1.364 2.476 1.364 6.636v23h-5.364v-4.727h-.273q-.545 1.136-1.818 2.432-1.272 1.295-3.386 2.204t-5.159.909m.818-4.818q3.181 0 5.364-1.25 2.204-1.25 3.318-3.227 1.136-1.978 1.136-4.159v-4.909q-.34.408-1.5.75a25 25 0 0 1-2.636.568q-1.477.227-2.887.409-1.386.159-2.25.273a20.5 20.5 0 0 0-3.909.886q-1.795.59-2.909 1.795-1.09 1.182-1.091 3.228 0 2.795 2.069 4.227 2.09 1.409 5.295 1.409M72.884 643v-52.364h7.772v7.909h.546q1.431-3.886 5.182-6.306 3.75-2.421 8.454-2.421.887 0 2.216.034t2.011.103v8.181q-.408-.102-1.874-.306a18.4 18.4 0 0 0-3.035-.239q-3.818 0-6.818 1.602-2.966 1.569-4.704 4.364-1.705 2.761-1.705 6.307V643zm77.532 19.636v-27.681h-.682q-.887 1.431-2.523 3.613-1.636 2.148-4.67 3.852-3.034 1.671-8.08 1.671-6.545 0-11.556-3.307-5.012-3.341-7.841-9.409-2.83-6.102-2.83-14.42 0-8.25 2.83-14.319 2.829-6.067 7.875-9.375 5.045-3.306 11.659-3.306 5.113 0 8.079 1.704 3 1.67 4.568 3.818 1.603 2.113 2.489 3.478h.955v-8.319h7.772v72zm-14.864-25.772q4.842 0 8.182-2.523 3.341-2.557 5.08-7.057 1.738-4.534 1.738-10.466 0-5.863-1.704-10.261-1.705-4.432-5.046-6.887-3.34-2.488-8.25-2.488-5.114 0-8.522 2.625-3.375 2.59-5.08 7.057-1.67 4.431-1.67 9.954 0 5.591 1.704 10.159 1.739 4.534 5.114 7.228 3.409 2.659 8.454 2.659m78.317-15.273v-30.955h8.045V643h-8.045v-8.864h-.546q-1.84 3.989-5.727 6.784-3.887 2.762-9.818 2.762-4.91 0-8.728-2.148-3.817-2.181-6-6.545-2.181-4.398-2.181-11.08v-33.273h8.045v32.728q0 5.727 3.205 9.136 3.238 3.41 8.25 3.409 3 0 6.102-1.534 3.137-1.534 5.25-4.705 2.148-3.17 2.148-8.079M244.33 643v-52.364h8.045V643zm4.091-61.091q-2.353 0-4.057-1.602-1.67-1.602-1.67-3.852t1.67-3.853q1.704-1.602 4.057-1.602 2.352 0 4.023 1.602 1.704 1.602 1.704 3.853 0 2.25-1.704 3.852-1.671 1.602-4.023 1.602m49.143 8.727v6.819h-27.137v-6.819zm-19.227-12.545h8.045V628q0 3.409.989 5.114 1.022 1.67 2.591 2.25 1.602.545 3.375.545 1.329 0 2.181-.136l1.364-.273 1.636 7.227q-.817.307-2.284.614-1.466.34-3.716.341-3.409 0-6.681-1.466-3.24-1.466-5.387-4.466-2.113-3-2.113-7.568zm60.401 66q-7.568 0-13.057-3.341-5.454-3.375-8.42-9.409-2.932-6.068-2.932-14.114 0-8.045 2.932-14.182 2.965-6.17 8.25-9.613 5.318-3.477 12.409-3.477 4.09 0 8.08 1.363 3.988 1.364 7.261 4.432 3.273 3.035 5.216 8.045 1.943 5.012 1.943 12.341v3.409h-40.364v-6.954h32.182q0-4.432-1.773-7.909-1.738-3.477-4.977-5.489-3.204-2.011-7.568-2.011-4.807 0-8.318 2.386a15.7 15.7 0 0 0-5.352 6.137q-1.875 3.784-1.875 8.113v4.637q0 5.931 2.045 10.056 2.08 4.091 5.761 6.239 3.682 2.114 8.557 2.114 3.171 0 5.727-.887 2.591-.92 4.466-2.727 1.875-1.84 2.898-4.568l7.773 2.182a17.2 17.2 0 0 1-4.125 6.954q-2.898 2.966-7.159 4.637-4.261 1.636-9.58 1.636m62.873 0q-7.364 0-12.681-3.477-5.319-3.478-8.182-9.58t-2.864-13.943q0-7.977 2.932-14.08 2.965-6.137 8.25-9.579 5.318-3.477 12.409-3.477 5.523 0 9.955 2.045 4.431 2.046 7.261 5.727t3.511 8.591h-8.045q-.92-3.58-4.091-6.341-3.136-2.795-8.455-2.795-4.704 0-8.25 2.454-3.511 2.42-5.488 6.853-1.944 4.397-1.943 10.329 0 6.069 1.909 10.568 1.943 4.5 5.454 6.989 3.546 2.489 8.318 2.489 3.136 0 5.694-1.091a11.75 11.75 0 0 0 4.329-3.137q1.773-2.045 2.523-4.909h8.045q-.681 4.636-3.375 8.353-2.659 3.681-7.057 5.863-4.363 2.148-10.159 2.148m62.805-53.455v6.819H437.28v-6.819zm-19.227-12.545h8.046V628q0 3.409.988 5.114 1.023 1.67 2.591 2.25 1.602.545 3.375.545 1.33 0 2.182-.136l1.364-.273 1.636 7.227q-.819.307-2.284.614-1.466.34-3.716.341-3.41 0-6.682-1.466-3.238-1.466-5.386-4.466-2.114-3-2.114-7.568zm59.72 66q-7.09 0-12.443-3.375-5.319-3.375-8.319-9.443-2.965-6.069-2.965-14.182 0-8.182 2.965-14.284 3-6.102 8.319-9.477 5.352-3.375 12.443-3.375t12.409 3.375q5.352 3.375 8.318 9.477 3 6.102 3 14.284 0 8.113-3 14.182-2.966 6.068-8.318 9.443-5.319 3.375-12.409 3.375m0-7.227q5.386 0 8.863-2.762 3.479-2.761 5.148-7.261 1.671-4.5 1.671-9.75t-1.671-9.784q-1.67-4.534-5.148-7.33-3.477-2.795-8.863-2.795-5.387 0-8.864 2.795t-5.148 7.33q-1.67 4.534-1.67 9.784t1.67 9.75 5.148 7.261q3.477 2.762 8.864 2.762"/></svg>